solid OpenSCAD_Model
  facet normal -0.743144 -0.669132 0
    outer loop
      vertex -5.52033 -6.13094 0
      vertex -6.67439 -4.84923 5.5
      vertex -6.67439 -4.84923 0
    endloop
  endfacet
  facet normal -0.743144 -0.669132 0
    outer loop
      vertex -6.67439 -4.84923 5.5
      vertex -5.52033 -6.13094 0
      vertex -5.52033 -6.13094 5.5
    endloop
  endfacet
  facet normal 0.951056 0.309018 0
    outer loop
      vertex 8.06972 1.71527 5.5
      vertex 7.53675 3.35558 0
      vertex 7.53675 3.35558 5.5
    endloop
  endfacet
  facet normal 0.951056 0.309018 0
    outer loop
      vertex 7.53675 3.35558 0
      vertex 8.06972 1.71527 5.5
      vertex 8.06972 1.71527 0
    endloop
  endfacet
  facet normal 0.994522 0.104527 0
    outer loop
      vertex 8.25 0 5.5
      vertex 8.06972 1.71527 0
      vertex 8.06972 1.71527 5.5
    endloop
  endfacet
  facet normal 0.994522 0.104527 0
    outer loop
      vertex 8.06972 1.71527 0
      vertex 8.25 0 5.5
      vertex 8.25 0 0
    endloop
  endfacet
  facet normal 0.866025 0.5 0
    outer loop
      vertex 7.53675 3.35558 5.5
      vertex 6.67439 4.84923 0
      vertex 6.67439 4.84923 5.5
    endloop
  endfacet
  facet normal 0.866025 0.5 0
    outer loop
      vertex 6.67439 4.84923 0
      vertex 7.53675 3.35558 5.5
      vertex 7.53675 3.35558 0
    endloop
  endfacet
  facet normal 0.951056 -0.309018 0
    outer loop
      vertex 7.53675 -3.35558 5.5
      vertex 8.06972 -1.71527 0
      vertex 8.06972 -1.71527 5.5
    endloop
  endfacet
  facet normal 0.951056 -0.309018 0
    outer loop
      vertex 8.06972 -1.71527 0
      vertex 7.53675 -3.35558 5.5
      vertex 7.53675 -3.35558 0
    endloop
  endfacet
  facet normal 0.587787 -0.809016 0
    outer loop
      vertex 4.125 -7.14471 0
      vertex 5.52033 -6.13094 5.5
      vertex 4.125 -7.14471 5.5
    endloop
  endfacet
  facet normal 0.587787 -0.809016 0
    outer loop
      vertex 5.52033 -6.13094 5.5
      vertex 4.125 -7.14471 0
      vertex 5.52033 -6.13094 0
    endloop
  endfacet
  facet normal 0.743144 -0.669132 0
    outer loop
      vertex 5.52033 -6.13094 5.5
      vertex 6.67439 -4.84923 0
      vertex 6.67439 -4.84923 5.5
    endloop
  endfacet
  facet normal 0.743144 -0.669132 0
    outer loop
      vertex 6.67439 -4.84923 0
      vertex 5.52033 -6.13094 5.5
      vertex 5.52033 -6.13094 0
    endloop
  endfacet
  facet normal 0.994522 -0.104527 0
    outer loop
      vertex 8.06972 -1.71527 5.5
      vertex 8.25 0 0
      vertex 8.25 0 5.5
    endloop
  endfacet
  facet normal 0.994522 -0.104527 0
    outer loop
      vertex 8.25 0 0
      vertex 8.06972 -1.71527 5.5
      vertex 8.06972 -1.71527 0
    endloop
  endfacet
  facet normal -0.406738 -0.913545 0
    outer loop
      vertex -4.125 -7.14471 0
      vertex -2.54939 -7.84622 5.5
      vertex -4.125 -7.14471 5.5
    endloop
  endfacet
  facet normal -0.406738 -0.913545 -0
    outer loop
      vertex -2.54939 -7.84622 5.5
      vertex -4.125 -7.14471 0
      vertex -2.54939 -7.84622 0
    endloop
  endfacet
  facet normal 0.406738 0.913545 -0
    outer loop
      vertex 4.125 7.14471 0
      vertex 2.54939 7.84622 5.5
      vertex 4.125 7.14471 5.5
    endloop
  endfacet
  facet normal 0.406738 0.913545 0
    outer loop
      vertex 2.54939 7.84622 5.5
      vertex 4.125 7.14471 0
      vertex 2.54939 7.84622 0
    endloop
  endfacet
  facet normal 0.743144 0.669132 0
    outer loop
      vertex 6.67439 4.84923 5.5
      vertex 5.52033 6.13094 0
      vertex 5.52033 6.13094 5.5
    endloop
  endfacet
  facet normal 0.743144 0.669132 0
    outer loop
      vertex 5.52033 6.13094 0
      vertex 6.67439 4.84923 5.5
      vertex 6.67439 4.84923 0
    endloop
  endfacet
  facet normal -0.587787 -0.809016 0
    outer loop
      vertex -5.52033 -6.13094 0
      vertex -4.125 -7.14471 5.5
      vertex -5.52033 -6.13094 5.5
    endloop
  endfacet
  facet normal -0.587787 -0.809016 -0
    outer loop
      vertex -4.125 -7.14471 5.5
      vertex -5.52033 -6.13094 0
      vertex -4.125 -7.14471 0
    endloop
  endfacet
  facet normal -0.743144 0.669132 0
    outer loop
      vertex -6.67439 4.84923 0
      vertex -5.52033 6.13094 5.5
      vertex -5.52033 6.13094 0
    endloop
  endfacet
  facet normal -0.743144 0.669132 0
    outer loop
      vertex -5.52033 6.13094 5.5
      vertex -6.67439 4.84923 0
      vertex -6.67439 4.84923 5.5
    endloop
  endfacet
  facet normal 0 1 -0
    outer loop
      vertex 0.862359 8.20481 0
      vertex -0.862359 8.20481 5.5
      vertex 0.862359 8.20481 5.5
    endloop
  endfacet
  facet normal 0 1 0
    outer loop
      vertex -0.862359 8.20481 5.5
      vertex 0.862359 8.20481 0
      vertex -0.862359 8.20481 0
    endloop
  endfacet
  facet normal 0.406738 -0.913545 0
    outer loop
      vertex 2.54939 -7.84622 0
      vertex 4.125 -7.14471 5.5
      vertex 2.54939 -7.84622 5.5
    endloop
  endfacet
  facet normal 0.406738 -0.913545 0
    outer loop
      vertex 4.125 -7.14471 5.5
      vertex 2.54939 -7.84622 0
      vertex 4.125 -7.14471 0
    endloop
  endfacet
  facet normal 0.207912 -0.978148 0
    outer loop
      vertex 0.862359 -8.20481 0
      vertex 2.54939 -7.84622 5.5
      vertex 0.862359 -8.20481 5.5
    endloop
  endfacet
  facet normal 0.207912 -0.978148 0
    outer loop
      vertex 2.54939 -7.84622 5.5
      vertex 0.862359 -8.20481 0
      vertex 2.54939 -7.84622 0
    endloop
  endfacet
  facet normal -0.951056 0.309018 0
    outer loop
      vertex -8.06972 1.71527 0
      vertex -7.53675 3.35558 5.5
      vertex -7.53675 3.35558 0
    endloop
  endfacet
  facet normal -0.951056 0.309018 0
    outer loop
      vertex -7.53675 3.35558 5.5
      vertex -8.06972 1.71527 0
      vertex -8.06972 1.71527 5.5
    endloop
  endfacet
  facet normal 0 0 -1
    outer loop
      vertex 2 0 0
      vertex 8.25 0 0
      vertex 8.06972 -1.71527 0
    endloop
  endfacet
  facet normal 0 0 -1
    outer loop
      vertex 1.9563 -0.415823 0
      vertex 8.06972 -1.71527 0
      vertex 7.53675 -3.35558 0
    endloop
  endfacet
  facet normal 0 0 -1
    outer loop
      vertex 8.25 0 0
      vertex 2 0 0
      vertex 8.06972 1.71527 0
    endloop
  endfacet
  facet normal 0 0 -1
    outer loop
      vertex 1.82709 -0.813473 0
      vertex 7.53675 -3.35558 0
      vertex 6.67439 -4.84923 0
    endloop
  endfacet
  facet normal 0 0 -1
    outer loop
      vertex 1.9563 0.415823 0
      vertex 8.06972 1.71527 0
      vertex 2 0 0
    endloop
  endfacet
  facet normal 0 0 -1
    outer loop
      vertex 1.61803 -1.17557 0
      vertex 6.67439 -4.84923 0
      vertex 5.52033 -6.13094 0
    endloop
  endfacet
  facet normal -0 0 -1
    outer loop
      vertex 8.06972 1.71527 0
      vertex 1.9563 0.415823 0
      vertex 7.53675 3.35558 0
    endloop
  endfacet
  facet normal 0 0 -1
    outer loop
      vertex 1.33826 -1.48629 0
      vertex 5.52033 -6.13094 0
      vertex 4.125 -7.14471 0
    endloop
  endfacet
  facet normal 0 0 -1
    outer loop
      vertex 1.82709 0.813473 0
      vertex 7.53675 3.35558 0
      vertex 1.9563 0.415823 0
    endloop
  endfacet
  facet normal 0 0 -1
    outer loop
      vertex 1 -1.73205 0
      vertex 4.125 -7.14471 0
      vertex 2.54939 -7.84622 0
    endloop
  endfacet
  facet normal -0 0 -1
    outer loop
      vertex 7.53675 3.35558 0
      vertex 1.82709 0.813473 0
      vertex 6.67439 4.84923 0
    endloop
  endfacet
  facet normal 0 0 -1
    outer loop
      vertex 1.61803 1.17557 0
      vertex 6.67439 4.84923 0
      vertex 1.82709 0.813473 0
    endloop
  endfacet
  facet normal 0 0 -1
    outer loop
      vertex 8.06972 -1.71527 0
      vertex 1.9563 -0.415823 0
      vertex 2 0 0
    endloop
  endfacet
  facet normal 0 0 -1
    outer loop
      vertex 7.53675 -3.35558 0
      vertex 1.82709 -0.813473 0
      vertex 1.9563 -0.415823 0
    endloop
  endfacet
  facet normal 0 0 -1
    outer loop
      vertex 6.67439 -4.84923 0
      vertex 1.61803 -1.17557 0
      vertex 1.82709 -0.813473 0
    endloop
  endfacet
  facet normal 0 0 -1
    outer loop
      vertex 5.52033 -6.13094 0
      vertex 1.33826 -1.48629 0
      vertex 1.61803 -1.17557 0
    endloop
  endfacet
  facet normal 0 0 -1
    outer loop
      vertex 4.125 -7.14471 0
      vertex 1 -1.73205 0
      vertex 1.33826 -1.48629 0
    endloop
  endfacet
  facet normal 0 0 -1
    outer loop
      vertex 0.618033 -1.90211 0
      vertex 2.54939 -7.84622 0
      vertex 0.862359 -8.20481 0
    endloop
  endfacet
  facet normal 0 0 -1
    outer loop
      vertex 2.54939 -7.84622 0
      vertex 0.618033 -1.90211 0
      vertex 1 -1.73205 0
    endloop
  endfacet
  facet normal 0 0 -1
    outer loop
      vertex 0.862359 -8.20481 0
      vertex 0.209057 -1.98904 0
      vertex 0.618033 -1.90211 0
    endloop
  endfacet
  facet normal 0 0 -1
    outer loop
      vertex 0.862359 -8.20481 0
      vertex -0.209057 -1.98904 0
      vertex 0.209057 -1.98904 0
    endloop
  endfacet
  facet normal 0 0 -1
    outer loop
      vertex -0.862359 -8.20481 0
      vertex -0.209057 -1.98904 0
      vertex 0.862359 -8.20481 0
    endloop
  endfacet
  facet normal -0 0 -1
    outer loop
      vertex -0.209057 -1.98904 0
      vertex -0.862359 -8.20481 0
      vertex -0.618033 -1.90211 0
    endloop
  endfacet
  facet normal 0 0 -1
    outer loop
      vertex -2.54939 -7.84622 0
      vertex -0.618033 -1.90211 0
      vertex -0.862359 -8.20481 0
    endloop
  endfacet
  facet normal -0 0 -1
    outer loop
      vertex -0.618033 -1.90211 0
      vertex -2.54939 -7.84622 0
      vertex -1 -1.73205 0
    endloop
  endfacet
  facet normal 0 0 -1
    outer loop
      vertex -4.125 -7.14471 0
      vertex -1 -1.73205 0
      vertex -2.54939 -7.84622 0
    endloop
  endfacet
  facet normal -0 0 -1
    outer loop
      vertex -1 -1.73205 0
      vertex -4.125 -7.14471 0
      vertex -1.33826 -1.48629 0
    endloop
  endfacet
  facet normal 0 0 -1
    outer loop
      vertex -5.52033 -6.13094 0
      vertex -1.33826 -1.48629 0
      vertex -4.125 -7.14471 0
    endloop
  endfacet
  facet normal 0 0 -1
    outer loop
      vertex -6.67439 -4.84923 0
      vertex -1.61803 -1.17557 0
      vertex -5.52033 -6.13094 0
    endloop
  endfacet
  facet normal -0 0 -1
    outer loop
      vertex -1.33826 -1.48629 0
      vertex -5.52033 -6.13094 0
      vertex -1.61803 -1.17557 0
    endloop
  endfacet
  facet normal -0 0 -1
    outer loop
      vertex 6.67439 4.84923 0
      vertex 1.61803 1.17557 0
      vertex 5.52033 6.13094 0
    endloop
  endfacet
  facet normal 0 0 -1
    outer loop
      vertex 1.33826 1.48629 0
      vertex 5.52033 6.13094 0
      vertex 1.61803 1.17557 0
    endloop
  endfacet
  facet normal -0 0 -1
    outer loop
      vertex 5.52033 6.13094 0
      vertex 1.33826 1.48629 0
      vertex 4.125 7.14471 0
    endloop
  endfacet
  facet normal 0 0 -1
    outer loop
      vertex 1 1.73205 0
      vertex 4.125 7.14471 0
      vertex 1.33826 1.48629 0
    endloop
  endfacet
  facet normal -0 0 -1
    outer loop
      vertex 4.125 7.14471 0
      vertex 1 1.73205 0
      vertex 2.54939 7.84622 0
    endloop
  endfacet
  facet normal 0 0 -1
    outer loop
      vertex 0.618033 1.90211 0
      vertex 2.54939 7.84622 0
      vertex 1 1.73205 0
    endloop
  endfacet
  facet normal -0 0 -1
    outer loop
      vertex 2.54939 7.84622 0
      vertex 0.618033 1.90211 0
      vertex 0.862359 8.20481 0
    endloop
  endfacet
  facet normal 0 0 -1
    outer loop
      vertex 0.209057 1.98904 0
      vertex 0.862359 8.20481 0
      vertex 0.618033 1.90211 0
    endloop
  endfacet
  facet normal 0 0 -1
    outer loop
      vertex -0.209057 1.98904 0
      vertex 0.862359 8.20481 0
      vertex 0.209057 1.98904 0
    endloop
  endfacet
  facet normal 0 0 -1
    outer loop
      vertex -0.862359 8.20481 0
      vertex -0.209057 1.98904 0
      vertex -0.618033 1.90211 0
    endloop
  endfacet
  facet normal 0 0 -1
    outer loop
      vertex -0.209057 1.98904 0
      vertex -0.862359 8.20481 0
      vertex 0.862359 8.20481 0
    endloop
  endfacet
  facet normal 0 0 -1
    outer loop
      vertex -2.54939 7.84622 0
      vertex -0.618033 1.90211 0
      vertex -1 1.73205 0
    endloop
  endfacet
  facet normal 0 0 -1
    outer loop
      vertex -4.125 7.14471 0
      vertex -1 1.73205 0
      vertex -1.33826 1.48629 0
    endloop
  endfacet
  facet normal 0 0 -1
    outer loop
      vertex -5.52033 6.13094 0
      vertex -1.33826 1.48629 0
      vertex -1.61803 1.17557 0
    endloop
  endfacet
  facet normal 0 0 -1
    outer loop
      vertex -6.67439 4.84923 0
      vertex -1.61803 1.17557 0
      vertex -1.82709 0.813473 0
    endloop
  endfacet
  facet normal 0 0 -1
    outer loop
      vertex -7.53675 3.35558 0
      vertex -1.82709 0.813473 0
      vertex -1.9563 0.415823 0
    endloop
  endfacet
  facet normal 0 0 -1
    outer loop
      vertex -0.618033 1.90211 0
      vertex -2.54939 7.84622 0
      vertex -0.862359 8.20481 0
    endloop
  endfacet
  facet normal 0 0 -1
    outer loop
      vertex -8.06972 1.71527 0
      vertex -1.9563 0.415823 0
      vertex -2 0 0
    endloop
  endfacet
  facet normal -0 0 -1
    outer loop
      vertex -1.61803 -1.17557 0
      vertex -6.67439 -4.84923 0
      vertex -1.82709 -0.813473 0
    endloop
  endfacet
  facet normal 0 0 -1
    outer loop
      vertex -7.53675 -3.35558 0
      vertex -1.82709 -0.813473 0
      vertex -6.67439 -4.84923 0
    endloop
  endfacet
  facet normal 0 0 -1
    outer loop
      vertex -1 1.73205 0
      vertex -4.125 7.14471 0
      vertex -2.54939 7.84622 0
    endloop
  endfacet
  facet normal -0 0 -1
    outer loop
      vertex -1.82709 -0.813473 0
      vertex -7.53675 -3.35558 0
      vertex -1.9563 -0.415823 0
    endloop
  endfacet
  facet normal 0 0 -1
    outer loop
      vertex -1.33826 1.48629 0
      vertex -5.52033 6.13094 0
      vertex -4.125 7.14471 0
    endloop
  endfacet
  facet normal 0 0 -1
    outer loop
      vertex -8.06972 -1.71527 0
      vertex -1.9563 -0.415823 0
      vertex -7.53675 -3.35558 0
    endloop
  endfacet
  facet normal 0 0 -1
    outer loop
      vertex -1.61803 1.17557 0
      vertex -6.67439 4.84923 0
      vertex -5.52033 6.13094 0
    endloop
  endfacet
  facet normal -0 0 -1
    outer loop
      vertex -1.9563 -0.415823 0
      vertex -8.06972 -1.71527 0
      vertex -2 0 0
    endloop
  endfacet
  facet normal 0 0 -1
    outer loop
      vertex -1.82709 0.813473 0
      vertex -7.53675 3.35558 0
      vertex -6.67439 4.84923 0
    endloop
  endfacet
  facet normal 0 0 -1
    outer loop
      vertex -8.25 0 0
      vertex -2 0 0
      vertex -8.06972 -1.71527 0
    endloop
  endfacet
  facet normal 0 0 -1
    outer loop
      vertex -1.9563 0.415823 0
      vertex -8.06972 1.71527 0
      vertex -7.53675 3.35558 0
    endloop
  endfacet
  facet normal 0 0 -1
    outer loop
      vertex -2 0 0
      vertex -8.25 0 0
      vertex -8.06972 1.71527 0
    endloop
  endfacet
  facet normal -0.951056 -0.309018 0
    outer loop
      vertex -7.53675 -3.35558 0
      vertex -8.06972 -1.71527 5.5
      vertex -8.06972 -1.71527 0
    endloop
  endfacet
  facet normal -0.951056 -0.309018 0
    outer loop
      vertex -8.06972 -1.71527 5.5
      vertex -7.53675 -3.35558 0
      vertex -7.53675 -3.35558 5.5
    endloop
  endfacet
  facet normal -0.406738 0.913545 0
    outer loop
      vertex -2.54939 7.84622 0
      vertex -4.125 7.14471 5.5
      vertex -2.54939 7.84622 5.5
    endloop
  endfacet
  facet normal -0.406738 0.913545 0
    outer loop
      vertex -4.125 7.14471 5.5
      vertex -2.54939 7.84622 0
      vertex -4.125 7.14471 0
    endloop
  endfacet
  facet normal 0 0 1
    outer loop
      vertex 2 0 5.5
      vertex 8.25 0 5.5
      vertex 8.06972 1.71527 5.5
    endloop
  endfacet
  facet normal 0 0 1
    outer loop
      vertex 1.9563 0.415823 5.5
      vertex 8.06972 1.71527 5.5
      vertex 7.53675 3.35558 5.5
    endloop
  endfacet
  facet normal 0 0 1
    outer loop
      vertex 8.25 0 5.5
      vertex 2 0 5.5
      vertex 8.06972 -1.71527 5.5
    endloop
  endfacet
  facet normal 0 0 1
    outer loop
      vertex 1.82709 0.813473 5.5
      vertex 7.53675 3.35558 5.5
      vertex 6.67439 4.84923 5.5
    endloop
  endfacet
  facet normal -0 0 1
    outer loop
      vertex 1.9563 -0.415823 5.5
      vertex 8.06972 -1.71527 5.5
      vertex 2 0 5.5
    endloop
  endfacet
  facet normal 0 0 1
    outer loop
      vertex 1.61803 1.17557 5.5
      vertex 6.67439 4.84923 5.5
      vertex 5.52033 6.13094 5.5
    endloop
  endfacet
  facet normal 0 0 1
    outer loop
      vertex 8.06972 -1.71527 5.5
      vertex 1.9563 -0.415823 5.5
      vertex 7.53675 -3.35558 5.5
    endloop
  endfacet
  facet normal 0 0 1
    outer loop
      vertex 1.33826 1.48629 5.5
      vertex 5.52033 6.13094 5.5
      vertex 4.125 7.14471 5.5
    endloop
  endfacet
  facet normal -0 0 1
    outer loop
      vertex 1.82709 -0.813473 5.5
      vertex 7.53675 -3.35558 5.5
      vertex 1.9563 -0.415823 5.5
    endloop
  endfacet
  facet normal 0 0 1
    outer loop
      vertex 1 1.73205 5.5
      vertex 4.125 7.14471 5.5
      vertex 2.54939 7.84622 5.5
    endloop
  endfacet
  facet normal 0 0 1
    outer loop
      vertex 7.53675 -3.35558 5.5
      vertex 1.82709 -0.813473 5.5
      vertex 6.67439 -4.84923 5.5
    endloop
  endfacet
  facet normal -0 0 1
    outer loop
      vertex 1.61803 -1.17557 5.5
      vertex 6.67439 -4.84923 5.5
      vertex 1.82709 -0.813473 5.5
    endloop
  endfacet
  facet normal 0 0 1
    outer loop
      vertex 8.06972 1.71527 5.5
      vertex 1.9563 0.415823 5.5
      vertex 2 0 5.5
    endloop
  endfacet
  facet normal 0 0 1
    outer loop
      vertex 7.53675 3.35558 5.5
      vertex 1.82709 0.813473 5.5
      vertex 1.9563 0.415823 5.5
    endloop
  endfacet
  facet normal 0 0 1
    outer loop
      vertex 6.67439 4.84923 5.5
      vertex 1.61803 1.17557 5.5
      vertex 1.82709 0.813473 5.5
    endloop
  endfacet
  facet normal 0 0 1
    outer loop
      vertex 5.52033 6.13094 5.5
      vertex 1.33826 1.48629 5.5
      vertex 1.61803 1.17557 5.5
    endloop
  endfacet
  facet normal 0 0 1
    outer loop
      vertex 4.125 7.14471 5.5
      vertex 1 1.73205 5.5
      vertex 1.33826 1.48629 5.5
    endloop
  endfacet
  facet normal 0 0 1
    outer loop
      vertex 0.618033 1.90211 5.5
      vertex 2.54939 7.84622 5.5
      vertex 0.862359 8.20481 5.5
    endloop
  endfacet
  facet normal 0 0 1
    outer loop
      vertex 2.54939 7.84622 5.5
      vertex 0.618033 1.90211 5.5
      vertex 1 1.73205 5.5
    endloop
  endfacet
  facet normal 0 0 1
    outer loop
      vertex 0.862359 8.20481 5.5
      vertex 0.209057 1.98904 5.5
      vertex 0.618033 1.90211 5.5
    endloop
  endfacet
  facet normal 0 0 1
    outer loop
      vertex 0.862359 8.20481 5.5
      vertex -0.209057 1.98904 5.5
      vertex 0.209057 1.98904 5.5
    endloop
  endfacet
  facet normal -0 0 1
    outer loop
      vertex -0.862359 8.20481 5.5
      vertex -0.209057 1.98904 5.5
      vertex 0.862359 8.20481 5.5
    endloop
  endfacet
  facet normal 0 0 1
    outer loop
      vertex -0.209057 1.98904 5.5
      vertex -0.862359 8.20481 5.5
      vertex -0.618033 1.90211 5.5
    endloop
  endfacet
  facet normal -0 0 1
    outer loop
      vertex -2.54939 7.84622 5.5
      vertex -0.618033 1.90211 5.5
      vertex -0.862359 8.20481 5.5
    endloop
  endfacet
  facet normal 0 0 1
    outer loop
      vertex -0.618033 1.90211 5.5
      vertex -2.54939 7.84622 5.5
      vertex -1 1.73205 5.5
    endloop
  endfacet
  facet normal -0 0 1
    outer loop
      vertex -4.125 7.14471 5.5
      vertex -1 1.73205 5.5
      vertex -2.54939 7.84622 5.5
    endloop
  endfacet
  facet normal 0 0 1
    outer loop
      vertex -1 1.73205 5.5
      vertex -4.125 7.14471 5.5
      vertex -1.33826 1.48629 5.5
    endloop
  endfacet
  facet normal -0 0 1
    outer loop
      vertex -5.52033 6.13094 5.5
      vertex -1.33826 1.48629 5.5
      vertex -4.125 7.14471 5.5
    endloop
  endfacet
  facet normal -0 0 1
    outer loop
      vertex -6.67439 4.84923 5.5
      vertex -1.61803 1.17557 5.5
      vertex -5.52033 6.13094 5.5
    endloop
  endfacet
  facet normal 0 0 1
    outer loop
      vertex -1.33826 1.48629 5.5
      vertex -5.52033 6.13094 5.5
      vertex -1.61803 1.17557 5.5
    endloop
  endfacet
  facet normal 0 0 1
    outer loop
      vertex 6.67439 -4.84923 5.5
      vertex 1.61803 -1.17557 5.5
      vertex 5.52033 -6.13094 5.5
    endloop
  endfacet
  facet normal -0 0 1
    outer loop
      vertex 1.33826 -1.48629 5.5
      vertex 5.52033 -6.13094 5.5
      vertex 1.61803 -1.17557 5.5
    endloop
  endfacet
  facet normal 0 0 1
    outer loop
      vertex 5.52033 -6.13094 5.5
      vertex 1.33826 -1.48629 5.5
      vertex 4.125 -7.14471 5.5
    endloop
  endfacet
  facet normal -0 0 1
    outer loop
      vertex 1 -1.73205 5.5
      vertex 4.125 -7.14471 5.5
      vertex 1.33826 -1.48629 5.5
    endloop
  endfacet
  facet normal 0 0 1
    outer loop
      vertex 4.125 -7.14471 5.5
      vertex 1 -1.73205 5.5
      vertex 2.54939 -7.84622 5.5
    endloop
  endfacet
  facet normal -0 0 1
    outer loop
      vertex 0.618033 -1.90211 5.5
      vertex 2.54939 -7.84622 5.5
      vertex 1 -1.73205 5.5
    endloop
  endfacet
  facet normal 0 0 1
    outer loop
      vertex 2.54939 -7.84622 5.5
      vertex 0.618033 -1.90211 5.5
      vertex 0.862359 -8.20481 5.5
    endloop
  endfacet
  facet normal -0 0 1
    outer loop
      vertex 0.209057 -1.98904 5.5
      vertex 0.862359 -8.20481 5.5
      vertex 0.618033 -1.90211 5.5
    endloop
  endfacet
  facet normal -0 0 1
    outer loop
      vertex -0.209057 -1.98904 5.5
      vertex 0.862359 -8.20481 5.5
      vertex 0.209057 -1.98904 5.5
    endloop
  endfacet
  facet normal 0 0 1
    outer loop
      vertex -0.862359 -8.20481 5.5
      vertex -0.209057 -1.98904 5.5
      vertex -0.618033 -1.90211 5.5
    endloop
  endfacet
  facet normal 0 0 1
    outer loop
      vertex -0.209057 -1.98904 5.5
      vertex -0.862359 -8.20481 5.5
      vertex 0.862359 -8.20481 5.5
    endloop
  endfacet
  facet normal 0 0 1
    outer loop
      vertex -2.54939 -7.84622 5.5
      vertex -0.618033 -1.90211 5.5
      vertex -1 -1.73205 5.5
    endloop
  endfacet
  facet normal 0 0 1
    outer loop
      vertex -4.125 -7.14471 5.5
      vertex -1 -1.73205 5.5
      vertex -1.33826 -1.48629 5.5
    endloop
  endfacet
  facet normal 0 0 1
    outer loop
      vertex -5.52033 -6.13094 5.5
      vertex -1.33826 -1.48629 5.5
      vertex -1.61803 -1.17557 5.5
    endloop
  endfacet
  facet normal 0 0 1
    outer loop
      vertex -6.67439 -4.84923 5.5
      vertex -1.61803 -1.17557 5.5
      vertex -1.82709 -0.813473 5.5
    endloop
  endfacet
  facet normal 0 0 1
    outer loop
      vertex -7.53675 -3.35558 5.5
      vertex -1.82709 -0.813473 5.5
      vertex -1.9563 -0.415823 5.5
    endloop
  endfacet
  facet normal 0 0 1
    outer loop
      vertex -0.618033 -1.90211 5.5
      vertex -2.54939 -7.84622 5.5
      vertex -0.862359 -8.20481 5.5
    endloop
  endfacet
  facet normal 0 0 1
    outer loop
      vertex -8.06972 -1.71527 5.5
      vertex -1.9563 -0.415823 5.5
      vertex -2 0 5.5
    endloop
  endfacet
  facet normal 0 0 1
    outer loop
      vertex -1.61803 1.17557 5.5
      vertex -6.67439 4.84923 5.5
      vertex -1.82709 0.813473 5.5
    endloop
  endfacet
  facet normal -0 0 1
    outer loop
      vertex -7.53675 3.35558 5.5
      vertex -1.82709 0.813473 5.5
      vertex -6.67439 4.84923 5.5
    endloop
  endfacet
  facet normal 0 0 1
    outer loop
      vertex -1 -1.73205 5.5
      vertex -4.125 -7.14471 5.5
      vertex -2.54939 -7.84622 5.5
    endloop
  endfacet
  facet normal 0 0 1
    outer loop
      vertex -1.82709 0.813473 5.5
      vertex -7.53675 3.35558 5.5
      vertex -1.9563 0.415823 5.5
    endloop
  endfacet
  facet normal 0 0 1
    outer loop
      vertex -1.33826 -1.48629 5.5
      vertex -5.52033 -6.13094 5.5
      vertex -4.125 -7.14471 5.5
    endloop
  endfacet
  facet normal -0 0 1
    outer loop
      vertex -8.06972 1.71527 5.5
      vertex -1.9563 0.415823 5.5
      vertex -7.53675 3.35558 5.5
    endloop
  endfacet
  facet normal 0 0 1
    outer loop
      vertex -1.61803 -1.17557 5.5
      vertex -6.67439 -4.84923 5.5
      vertex -5.52033 -6.13094 5.5
    endloop
  endfacet
  facet normal 0 0 1
    outer loop
      vertex -1.9563 0.415823 5.5
      vertex -8.06972 1.71527 5.5
      vertex -2 0 5.5
    endloop
  endfacet
  facet normal 0 0 1
    outer loop
      vertex -1.82709 -0.813473 5.5
      vertex -7.53675 -3.35558 5.5
      vertex -6.67439 -4.84923 5.5
    endloop
  endfacet
  facet normal 0 0 1
    outer loop
      vertex -8.25 0 5.5
      vertex -2 0 5.5
      vertex -8.06972 1.71527 5.5
    endloop
  endfacet
  facet normal 0 0 1
    outer loop
      vertex -1.9563 -0.415823 5.5
      vertex -8.06972 -1.71527 5.5
      vertex -7.53675 -3.35558 5.5
    endloop
  endfacet
  facet normal 0 0 1
    outer loop
      vertex -2 0 5.5
      vertex -8.25 0 5.5
      vertex -8.06972 -1.71527 5.5
    endloop
  endfacet
  facet normal -0.207912 -0.978148 0
    outer loop
      vertex -2.54939 -7.84622 0
      vertex -0.862359 -8.20481 5.5
      vertex -2.54939 -7.84622 5.5
    endloop
  endfacet
  facet normal -0.207912 -0.978148 -0
    outer loop
      vertex -0.862359 -8.20481 5.5
      vertex -2.54939 -7.84622 0
      vertex -0.862359 -8.20481 0
    endloop
  endfacet
  facet normal 0.207912 0.978148 -0
    outer loop
      vertex 2.54939 7.84622 0
      vertex 0.862359 8.20481 5.5
      vertex 2.54939 7.84622 5.5
    endloop
  endfacet
  facet normal 0.207912 0.978148 0
    outer loop
      vertex 0.862359 8.20481 5.5
      vertex 2.54939 7.84622 0
      vertex 0.862359 8.20481 0
    endloop
  endfacet
  facet normal -0.994522 -0.104527 0
    outer loop
      vertex -8.06972 -1.71527 0
      vertex -8.25 0 5.5
      vertex -8.25 0 0
    endloop
  endfacet
  facet normal -0.994522 -0.104527 0
    outer loop
      vertex -8.25 0 5.5
      vertex -8.06972 -1.71527 0
      vertex -8.06972 -1.71527 5.5
    endloop
  endfacet
  facet normal -0.866025 -0.5 0
    outer loop
      vertex -6.67439 -4.84923 0
      vertex -7.53675 -3.35558 5.5
      vertex -7.53675 -3.35558 0
    endloop
  endfacet
  facet normal -0.866025 -0.5 0
    outer loop
      vertex -7.53675 -3.35558 5.5
      vertex -6.67439 -4.84923 0
      vertex -6.67439 -4.84923 5.5
    endloop
  endfacet
  facet normal -0.866025 0.5 0
    outer loop
      vertex -7.53675 3.35558 0
      vertex -6.67439 4.84923 5.5
      vertex -6.67439 4.84923 0
    endloop
  endfacet
  facet normal -0.866025 0.5 0
    outer loop
      vertex -6.67439 4.84923 5.5
      vertex -7.53675 3.35558 0
      vertex -7.53675 3.35558 5.5
    endloop
  endfacet
  facet normal 0.866025 -0.5 0
    outer loop
      vertex 6.67439 -4.84923 5.5
      vertex 7.53675 -3.35558 0
      vertex 7.53675 -3.35558 5.5
    endloop
  endfacet
  facet normal 0.866025 -0.5 0
    outer loop
      vertex 7.53675 -3.35558 0
      vertex 6.67439 -4.84923 5.5
      vertex 6.67439 -4.84923 0
    endloop
  endfacet
  facet normal 0.587787 0.809016 -0
    outer loop
      vertex 5.52033 6.13094 0
      vertex 4.125 7.14471 5.5
      vertex 5.52033 6.13094 5.5
    endloop
  endfacet
  facet normal 0.587787 0.809016 0
    outer loop
      vertex 4.125 7.14471 5.5
      vertex 5.52033 6.13094 0
      vertex 4.125 7.14471 0
    endloop
  endfacet
  facet normal -0.587787 0.809016 0
    outer loop
      vertex -4.125 7.14471 0
      vertex -5.52033 6.13094 5.5
      vertex -4.125 7.14471 5.5
    endloop
  endfacet
  facet normal -0.587787 0.809016 0
    outer loop
      vertex -5.52033 6.13094 5.5
      vertex -4.125 7.14471 0
      vertex -5.52033 6.13094 0
    endloop
  endfacet
  facet normal -0.207912 0.978148 0
    outer loop
      vertex -0.862359 8.20481 0
      vertex -2.54939 7.84622 5.5
      vertex -0.862359 8.20481 5.5
    endloop
  endfacet
  facet normal -0.207912 0.978148 0
    outer loop
      vertex -2.54939 7.84622 5.5
      vertex -0.862359 8.20481 0
      vertex -2.54939 7.84622 0
    endloop
  endfacet
  facet normal 0 -1 0
    outer loop
      vertex -0.862359 -8.20481 0
      vertex 0.862359 -8.20481 5.5
      vertex -0.862359 -8.20481 5.5
    endloop
  endfacet
  facet normal 0 -1 -0
    outer loop
      vertex 0.862359 -8.20481 5.5
      vertex -0.862359 -8.20481 0
      vertex 0.862359 -8.20481 0
    endloop
  endfacet
  facet normal -0.994522 0.104527 0
    outer loop
      vertex -8.25 0 0
      vertex -8.06972 1.71527 5.5
      vertex -8.06972 1.71527 0
    endloop
  endfacet
  facet normal -0.994522 0.104527 0
    outer loop
      vertex -8.06972 1.71527 5.5
      vertex -8.25 0 0
      vertex -8.25 0 5.5
    endloop
  endfacet
  facet normal 0.406731 0.913548 -0
    outer loop
      vertex -0.618033 -1.90211 0
      vertex -1 -1.73205 5.5
      vertex -0.618033 -1.90211 5.5
    endloop
  endfacet
  facet normal 0.406731 0.913548 0
    outer loop
      vertex -1 -1.73205 5.5
      vertex -0.618033 -1.90211 0
      vertex -1 -1.73205 0
    endloop
  endfacet
  facet normal -0.951053 -0.309029 0
    outer loop
      vertex 1.9563 0.415823 0
      vertex 1.82709 0.813473 5.5
      vertex 1.82709 0.813473 0
    endloop
  endfacet
  facet normal -0.951053 -0.309029 0
    outer loop
      vertex 1.82709 0.813473 5.5
      vertex 1.9563 0.415823 0
      vertex 1.9563 0.415823 5.5
    endloop
  endfacet
  facet normal -0.994523 -0.104517 0
    outer loop
      vertex 2 0 0
      vertex 1.9563 0.415823 5.5
      vertex 1.9563 0.415823 0
    endloop
  endfacet
  facet normal -0.994523 -0.104517 0
    outer loop
      vertex 1.9563 0.415823 5.5
      vertex 2 0 0
      vertex 2 0 5.5
    endloop
  endfacet
  facet normal -0.866022 -0.500006 0
    outer loop
      vertex 1.82709 0.813473 0
      vertex 1.61803 1.17557 5.5
      vertex 1.61803 1.17557 0
    endloop
  endfacet
  facet normal -0.866022 -0.500006 0
    outer loop
      vertex 1.61803 1.17557 5.5
      vertex 1.82709 0.813473 0
      vertex 1.82709 0.813473 5.5
    endloop
  endfacet
  facet normal 0.743149 0.669126 0
    outer loop
      vertex -1.33826 -1.48629 5.5
      vertex -1.61803 -1.17557 0
      vertex -1.61803 -1.17557 5.5
    endloop
  endfacet
  facet normal 0.743149 0.669126 0
    outer loop
      vertex -1.61803 -1.17557 0
      vertex -1.33826 -1.48629 5.5
      vertex -1.33826 -1.48629 0
    endloop
  endfacet
  facet normal -0.994523 0.104517 0
    outer loop
      vertex 1.9563 -0.415823 0
      vertex 2 0 5.5
      vertex 2 0 0
    endloop
  endfacet
  facet normal -0.994523 0.104517 0
    outer loop
      vertex 2 0 5.5
      vertex 1.9563 -0.415823 0
      vertex 1.9563 -0.415823 5.5
    endloop
  endfacet
  facet normal -0.866022 0.500006 0
    outer loop
      vertex 1.61803 -1.17557 0
      vertex 1.82709 -0.813473 5.5
      vertex 1.82709 -0.813473 0
    endloop
  endfacet
  facet normal -0.866022 0.500006 0
    outer loop
      vertex 1.82709 -0.813473 5.5
      vertex 1.61803 -1.17557 0
      vertex 1.61803 -1.17557 5.5
    endloop
  endfacet
  facet normal -0.406731 -0.913548 0
    outer loop
      vertex 0.618033 1.90211 0
      vertex 1 1.73205 5.5
      vertex 0.618033 1.90211 5.5
    endloop
  endfacet
  facet normal -0.406731 -0.913548 -0
    outer loop
      vertex 1 1.73205 5.5
      vertex 0.618033 1.90211 0
      vertex 1 1.73205 0
    endloop
  endfacet
  facet normal 0.951053 0.309029 0
    outer loop
      vertex -1.82709 -0.813473 5.5
      vertex -1.9563 -0.415823 0
      vertex -1.9563 -0.415823 5.5
    endloop
  endfacet
  facet normal 0.951053 0.309029 0
    outer loop
      vertex -1.9563 -0.415823 0
      vertex -1.82709 -0.813473 5.5
      vertex -1.82709 -0.813473 0
    endloop
  endfacet
  facet normal 0.587785 -0.809017 0
    outer loop
      vertex -1.33826 1.48629 0
      vertex -1 1.73205 5.5
      vertex -1.33826 1.48629 5.5
    endloop
  endfacet
  facet normal 0.587785 -0.809017 0
    outer loop
      vertex -1 1.73205 5.5
      vertex -1.33826 1.48629 0
      vertex -1 1.73205 0
    endloop
  endfacet
  facet normal -0.587785 -0.809017 0
    outer loop
      vertex 1 1.73205 0
      vertex 1.33826 1.48629 5.5
      vertex 1 1.73205 5.5
    endloop
  endfacet
  facet normal -0.587785 -0.809017 -0
    outer loop
      vertex 1.33826 1.48629 5.5
      vertex 1 1.73205 0
      vertex 1.33826 1.48629 0
    endloop
  endfacet
  facet normal 0.994523 -0.104517 0
    outer loop
      vertex -2 0 5.5
      vertex -1.9563 0.415823 0
      vertex -1.9563 0.415823 5.5
    endloop
  endfacet
  facet normal 0.994523 -0.104517 0
    outer loop
      vertex -1.9563 0.415823 0
      vertex -2 0 5.5
      vertex -2 0 0
    endloop
  endfacet
  facet normal -0.20791 0.978148 0
    outer loop
      vertex 0.618033 -1.90211 0
      vertex 0.209057 -1.98904 5.5
      vertex 0.618033 -1.90211 5.5
    endloop
  endfacet
  facet normal -0.20791 0.978148 0
    outer loop
      vertex 0.209057 -1.98904 5.5
      vertex 0.618033 -1.90211 0
      vertex 0.209057 -1.98904 0
    endloop
  endfacet
  facet normal 0.994523 0.104517 0
    outer loop
      vertex -1.9563 -0.415823 5.5
      vertex -2 0 0
      vertex -2 0 5.5
    endloop
  endfacet
  facet normal 0.994523 0.104517 0
    outer loop
      vertex -2 0 0
      vertex -1.9563 -0.415823 5.5
      vertex -1.9563 -0.415823 0
    endloop
  endfacet
  facet normal -0.743149 0.669126 0
    outer loop
      vertex 1.33826 -1.48629 0
      vertex 1.61803 -1.17557 5.5
      vertex 1.61803 -1.17557 0
    endloop
  endfacet
  facet normal -0.743149 0.669126 0
    outer loop
      vertex 1.61803 -1.17557 5.5
      vertex 1.33826 -1.48629 0
      vertex 1.33826 -1.48629 5.5
    endloop
  endfacet
  facet normal 0 1 -0
    outer loop
      vertex 0.209057 -1.98904 0
      vertex -0.209057 -1.98904 5.5
      vertex 0.209057 -1.98904 5.5
    endloop
  endfacet
  facet normal 0 1 0
    outer loop
      vertex -0.209057 -1.98904 5.5
      vertex 0.209057 -1.98904 0
      vertex -0.209057 -1.98904 0
    endloop
  endfacet
  facet normal 0.951053 -0.309029 0
    outer loop
      vertex -1.9563 0.415823 5.5
      vertex -1.82709 0.813473 0
      vertex -1.82709 0.813473 5.5
    endloop
  endfacet
  facet normal 0.951053 -0.309029 0
    outer loop
      vertex -1.82709 0.813473 0
      vertex -1.9563 0.415823 5.5
      vertex -1.9563 0.415823 0
    endloop
  endfacet
  facet normal 0.20791 -0.978148 0
    outer loop
      vertex -0.618033 1.90211 0
      vertex -0.209057 1.98904 5.5
      vertex -0.618033 1.90211 5.5
    endloop
  endfacet
  facet normal 0.20791 -0.978148 0
    outer loop
      vertex -0.209057 1.98904 5.5
      vertex -0.618033 1.90211 0
      vertex -0.209057 1.98904 0
    endloop
  endfacet
  facet normal -0.20791 -0.978148 0
    outer loop
      vertex 0.209057 1.98904 0
      vertex 0.618033 1.90211 5.5
      vertex 0.209057 1.98904 5.5
    endloop
  endfacet
  facet normal -0.20791 -0.978148 -0
    outer loop
      vertex 0.618033 1.90211 5.5
      vertex 0.209057 1.98904 0
      vertex 0.618033 1.90211 0
    endloop
  endfacet
  facet normal 0.406731 -0.913548 0
    outer loop
      vertex -1 1.73205 0
      vertex -0.618033 1.90211 5.5
      vertex -1 1.73205 5.5
    endloop
  endfacet
  facet normal 0.406731 -0.913548 0
    outer loop
      vertex -0.618033 1.90211 5.5
      vertex -1 1.73205 0
      vertex -0.618033 1.90211 0
    endloop
  endfacet
  facet normal -0.406731 0.913548 0
    outer loop
      vertex 1 -1.73205 0
      vertex 0.618033 -1.90211 5.5
      vertex 1 -1.73205 5.5
    endloop
  endfacet
  facet normal -0.406731 0.913548 0
    outer loop
      vertex 0.618033 -1.90211 5.5
      vertex 1 -1.73205 0
      vertex 0.618033 -1.90211 0
    endloop
  endfacet
  facet normal -0.951053 0.309029 0
    outer loop
      vertex 1.82709 -0.813473 0
      vertex 1.9563 -0.415823 5.5
      vertex 1.9563 -0.415823 0
    endloop
  endfacet
  facet normal -0.951053 0.309029 0
    outer loop
      vertex 1.9563 -0.415823 5.5
      vertex 1.82709 -0.813473 0
      vertex 1.82709 -0.813473 5.5
    endloop
  endfacet
  facet normal 0.743149 -0.669126 0
    outer loop
      vertex -1.61803 1.17557 5.5
      vertex -1.33826 1.48629 0
      vertex -1.33826 1.48629 5.5
    endloop
  endfacet
  facet normal 0.743149 -0.669126 0
    outer loop
      vertex -1.33826 1.48629 0
      vertex -1.61803 1.17557 5.5
      vertex -1.61803 1.17557 0
    endloop
  endfacet
  facet normal 0.20791 0.978148 -0
    outer loop
      vertex -0.209057 -1.98904 0
      vertex -0.618033 -1.90211 5.5
      vertex -0.209057 -1.98904 5.5
    endloop
  endfacet
  facet normal 0.20791 0.978148 0
    outer loop
      vertex -0.618033 -1.90211 5.5
      vertex -0.209057 -1.98904 0
      vertex -0.618033 -1.90211 0
    endloop
  endfacet
  facet normal 0.866022 0.500006 0
    outer loop
      vertex -1.61803 -1.17557 5.5
      vertex -1.82709 -0.813473 0
      vertex -1.82709 -0.813473 5.5
    endloop
  endfacet
  facet normal 0.866022 0.500006 0
    outer loop
      vertex -1.82709 -0.813473 0
      vertex -1.61803 -1.17557 5.5
      vertex -1.61803 -1.17557 0
    endloop
  endfacet
  facet normal -0.743149 -0.669126 0
    outer loop
      vertex 1.61803 1.17557 0
      vertex 1.33826 1.48629 5.5
      vertex 1.33826 1.48629 0
    endloop
  endfacet
  facet normal -0.743149 -0.669126 0
    outer loop
      vertex 1.33826 1.48629 5.5
      vertex 1.61803 1.17557 0
      vertex 1.61803 1.17557 5.5
    endloop
  endfacet
  facet normal 0.866022 -0.500006 0
    outer loop
      vertex -1.82709 0.813473 5.5
      vertex -1.61803 1.17557 0
      vertex -1.61803 1.17557 5.5
    endloop
  endfacet
  facet normal 0.866022 -0.500006 0
    outer loop
      vertex -1.61803 1.17557 0
      vertex -1.82709 0.813473 5.5
      vertex -1.82709 0.813473 0
    endloop
  endfacet
  facet normal -0.587785 0.809017 0
    outer loop
      vertex 1.33826 -1.48629 0
      vertex 1 -1.73205 5.5
      vertex 1.33826 -1.48629 5.5
    endloop
  endfacet
  facet normal -0.587785 0.809017 0
    outer loop
      vertex 1 -1.73205 5.5
      vertex 1.33826 -1.48629 0
      vertex 1 -1.73205 0
    endloop
  endfacet
  facet normal 0 -1 0
    outer loop
      vertex -0.209057 1.98904 0
      vertex 0.209057 1.98904 5.5
      vertex -0.209057 1.98904 5.5
    endloop
  endfacet
  facet normal 0 -1 -0
    outer loop
      vertex 0.209057 1.98904 5.5
      vertex -0.209057 1.98904 0
      vertex 0.209057 1.98904 0
    endloop
  endfacet
  facet normal 0.587785 0.809017 -0
    outer loop
      vertex -1 -1.73205 0
      vertex -1.33826 -1.48629 5.5
      vertex -1 -1.73205 5.5
    endloop
  endfacet
  facet normal 0.587785 0.809017 0
    outer loop
      vertex -1.33826 -1.48629 5.5
      vertex -1 -1.73205 0
      vertex -1.33826 -1.48629 0
    endloop
  endfacet
endsolid OpenSCAD_Model
